<svg xmlns="http://www.w3.org/2000/svg" viewBox="0 0 720 560" role="img" aria-labelledby="mobile-title mobile-desc">
<title id="mobile-title">Jeremy Darko mobile developer profile</title>
<desc id="mobile-desc">Compact black and white profile card with GitHub and Hackatime metrics.</desc>
<style>
.eyebrow{fill:#9b9b9b;font:11px 'Cascadia Code','JetBrains Mono',Consolas,monospace;letter-spacing:1.4px}
.name{fill:#f5f5f5;font:700 26px 'Cascadia Code','JetBrains Mono',Consolas,monospace;letter-spacing:.4px}
.status{fill:#0c0c0c;font:700 10px 'Cascadia Code','JetBrains Mono',Consolas,monospace;letter-spacing:1px}
.label{fill:#9b9b9b;font:11px 'Cascadia Code','JetBrains Mono',Consolas,monospace;letter-spacing:.8px}
.value{fill:#f5f5f5;font:700 15px 'Cascadia Code','JetBrains Mono',Consolas,monospace}
.body{fill:#f5f5f5;font:13px 'Cascadia Code','JetBrains Mono',Consolas,monospace}
.small{fill:#9b9b9b;font:11px 'Cascadia Code','JetBrains Mono',Consolas,monospace}
</style>
<rect width="720" height="560" rx="18" fill="#0c0c0c"/>
<rect x="1" y="1" width="718" height="558" rx="17" fill="none" stroke="#333"/>
<rect x="24" y="22" width="672" height="64" rx="10" fill="#181818"/>
<text x="42" y="47" class="eyebrow">SYSTEM PROFILE / MOBILE</text>
<text x="42" y="73" class="name">JEREMY DARKO</text>
<rect x="609" y="42" width="62" height="22" rx="11" fill="#f5f5f5"/>
<text x="640" y="57" text-anchor="middle" class="status">ONLINE</text>
<text x="42" y="111" class="eyebrow">IDENTITY</text>
<text x="42" y="137" class="value">17 years 0 months 26 days</text>
<text x="250" y="137" class="body">NRW, Germany</text>
<text x="445" y="137" class="body">Embedded Systems · Edge AI</text>
<line x1="24" y1="157" x2="696" y2="157" stroke="#333"/>
<text x="42" y="184" class="eyebrow">LIVE METRICS</text>
<text x="42" y="210" class="label">GITHUB</text>
<text x="42" y="232" class="value">10 repos · 19 stars</text>
<text x="300" y="210" class="label">HACKATIME</text>
<text x="300" y="232" class="value">354h 06m</text>
<text x="514" y="210" class="label">STREAK</text>
<text x="514" y="232" class="value">32 days</text>
<rect x="24" y="254" width="672" height="112" rx="12" fill="#181818"/>
<text x="42" y="280" class="eyebrow">CURRENT PROJECT</text>
<text x="42" y="311" class="value">torchVK</text>
<text x="42" y="333" class="body">Research Phase</text>
<text x="42" y="353" class="small">Experimental systems research</text>
<text x="42" y="397" class="eyebrow">STACK</text>
<text x="42" y="424" class="body">C++ · Python · ESP32 · KiCad · PlatformIO</text>
<line x1="24" y1="445" x2="696" y2="445" stroke="#333"/>
<text x="42" y="473" class="eyebrow">TOP PROJECTS</text>
<text x="42" y="499" class="small">MIRA-AI 107h 36m · NIMBL 83h 14m · Poorup 73h 00m</text>
<text x="42" y="532" class="small">LAST SYNC / 07.09.2026 · github.com/jeremy341</text>
</svg>